<svg width="165" height="28" viewBox="0 0 165 28" fill="none" xmlns="http://www.w3.org/2000/svg">
<g clip-path="url(#clip0)">
<g clip-path="url(#clip1)">
<path d="M3.21041 20.2377H0V6.27692H3.21041V11.8651H9.62003V6.27692H12.8304V20.2377H9.62003V14.6593H3.21041V20.2377Z" fill="#F43E3E"/>
<path d="M18.2221 24.2099V21.5326L19.9224 21.552C20.2207 21.552 20.5078 21.5099 20.7837 21.4255C21.0597 21.3411 21.3132 21.2243 21.5444 21.075C21.783 20.9257 21.9918 20.7472 22.1708 20.5395C22.3498 20.3383 22.4952 20.1177 22.6071 19.8775C22.2715 20.0008 21.9284 20.1242 21.5779 20.2475C21.2349 20.3708 20.8881 20.4325 20.5376 20.4325C19.7994 20.4325 19.1058 20.3189 18.457 20.0917C17.8082 19.8645 17.2377 19.5433 16.7456 19.1279C16.2608 18.706 15.8768 18.1965 15.5934 17.5994C15.3175 16.9958 15.1795 16.3208 15.1795 15.5744V9.81094H18.2221V15.5744C18.2221 15.9444 18.2818 16.2689 18.4011 16.548C18.5279 16.8206 18.6957 17.051 18.9045 17.2392C19.1133 17.4209 19.3556 17.5572 19.6316 17.6481C19.915 17.7389 20.217 17.7844 20.5376 17.7844C20.8509 17.7844 21.1454 17.7227 21.4213 17.5994C21.7047 17.4696 21.9508 17.3008 22.1596 17.0931C22.3684 16.8855 22.5325 16.6518 22.6518 16.3922C22.7711 16.1261 22.8308 15.8535 22.8308 15.5744V9.81094H25.907V18.9234C25.8995 19.6569 25.7354 20.3448 25.4148 20.9874C25.0941 21.6299 24.6541 22.1913 24.0948 22.6716C23.543 23.1519 22.8979 23.5316 22.1596 23.8107C21.4213 24.0898 20.6309 24.2293 19.7882 24.2293L18.2221 24.2099Z" fill="#F43E3E"/>
<path d="M31.321 24.2099H28.2449V9.81094H28.9831L30.2024 11.0668C30.4783 10.8397 30.7804 10.6255 31.1085 10.4243C31.4366 10.2231 31.7759 10.0511 32.1264 9.90829C32.4844 9.75901 32.8535 9.64219 33.2338 9.55781C33.6142 9.47344 33.9982 9.43125 34.386 9.43125C35.2287 9.43125 36.0192 9.5643 36.7575 9.83041C37.5032 10.09 38.152 10.46 38.7038 10.9403C39.2631 11.4206 39.7031 12.0014 40.0238 12.6829C40.3445 13.3579 40.5048 14.1076 40.5048 14.9319C40.5048 15.7886 40.3445 16.5609 40.0238 17.2489C39.7031 17.9304 39.2631 18.5113 38.7038 18.9916C38.152 19.4654 37.5032 19.8288 36.7575 20.082C36.0192 20.3351 35.2287 20.4617 34.386 20.4617C34.1175 20.4617 33.8491 20.4357 33.5806 20.3838C33.3196 20.3319 33.0586 20.2637 32.7976 20.1793C32.544 20.0885 32.2905 19.9879 32.0369 19.8775C31.7908 19.7672 31.5522 19.6536 31.321 19.5368V24.2099ZM37.4398 14.9319C37.4398 14.4905 37.3578 14.0946 37.1937 13.7441C37.0371 13.3936 36.8208 13.0983 36.5449 12.8582C36.269 12.6115 35.9446 12.4233 35.5717 12.2935C35.1989 12.1637 34.8036 12.0988 34.386 12.0988C33.9684 12.0988 33.5732 12.1637 33.2003 12.2935C32.8349 12.4233 32.5142 12.6115 32.2383 12.8582C31.9624 13.0983 31.7424 13.3936 31.5783 13.7441C31.4217 14.0946 31.3434 14.4905 31.3434 14.9319C31.3434 15.3537 31.4217 15.7399 31.5783 16.0904C31.7424 16.4409 31.9624 16.7394 32.2383 16.9861C32.5142 17.2327 32.8349 17.4242 33.2003 17.5605C33.5732 17.6968 33.9684 17.7649 34.386 17.7649C34.8036 17.7649 35.1989 17.6968 35.5717 17.5605C35.9446 17.4242 36.269 17.2327 36.5449 16.9861C36.8208 16.7394 37.0371 16.4409 37.1937 16.0904C37.3578 15.7399 37.4398 15.3537 37.4398 14.9319Z" fill="#F43E3E"/>
<path d="M46.9704 17.687C47.0897 17.7195 47.209 17.7422 47.3283 17.7552C47.4476 17.7617 47.5669 17.7649 47.6863 17.7649C47.9846 17.7649 48.2717 17.7292 48.5476 17.6578C48.8235 17.5864 49.0808 17.4858 49.3194 17.356C49.5655 17.2197 49.7818 17.0575 49.9682 16.8692C50.1621 16.6745 50.3187 16.4603 50.438 16.2267L52.6753 18.1835C52.3919 18.534 52.0637 18.8488 51.6909 19.1279C51.3255 19.407 50.9265 19.6439 50.494 19.8386C50.0689 20.0333 49.6177 20.1793 49.1405 20.2767C48.6706 20.3805 48.1859 20.4325 47.6863 20.4325C46.8436 20.4325 46.0494 20.2962 45.3036 20.0236C44.5653 19.751 43.9166 19.3713 43.3572 18.8845C42.8054 18.3977 42.3691 17.8201 42.0485 17.1516C41.7278 16.4766 41.5675 15.7367 41.5675 14.9319C41.5675 14.1076 41.7278 13.3547 42.0485 12.6732C42.3691 11.9917 42.8054 11.4108 43.3572 10.9305C43.9166 10.4502 44.5653 10.077 45.3036 9.81094C46.0494 9.54483 46.8436 9.41178 47.6863 9.41178C48.1859 9.41178 48.6744 9.4637 49.1516 9.56755C49.6289 9.67139 50.0801 9.82067 50.5052 10.0154C50.9377 10.2101 51.3404 10.4502 51.7132 10.7358C52.0861 11.0149 52.4142 11.3297 52.6976 11.6802L46.9704 17.687ZM48.5364 12.2059C48.3947 12.1605 48.253 12.1312 48.1113 12.1183C47.9771 12.1053 47.8354 12.0988 47.6863 12.0988C47.2686 12.0988 46.8734 12.1669 46.5005 12.3032C46.1351 12.4331 45.8145 12.6213 45.5385 12.8679C45.2701 13.1145 45.0575 13.4131 44.9009 13.7636C44.7443 14.1076 44.666 14.497 44.666 14.9319C44.666 15.0292 44.6697 15.1395 44.6772 15.2629C44.6921 15.3862 44.7108 15.5127 44.7331 15.6425C44.763 15.7659 44.7965 15.8859 44.8338 16.0028C44.8711 16.1196 44.9196 16.2234 44.9792 16.3143L48.5364 12.2059Z" fill="#F43E3E"/>
<path d="M57.2951 20.2377H54.2413V9.81094H54.9796L55.9863 11.0474C56.4785 10.6579 57.0378 10.3594 57.6642 10.1517C58.2907 9.9375 58.9395 9.83041 59.6106 9.83041H62.3065V12.4785H59.6106C59.29 12.4785 58.9879 12.5304 58.7045 12.6343C58.4212 12.7381 58.1751 12.8809 57.9663 13.0626C57.7575 13.2444 57.5934 13.4585 57.4741 13.7052C57.3548 13.9518 57.2951 14.2147 57.2951 14.4937V20.2377Z" fill="#F43E3E"/>
<path d="M81.7031 20.2377H70.4723V6.27692H73.6827V17.4436H81.7031V20.2377Z" fill="#F43E3E"/>
<path d="M94.321 14.9319C94.321 15.7107 94.1607 16.4376 93.84 17.1126C93.5194 17.7811 93.0831 18.362 92.5313 18.8553C91.9794 19.3421 91.3306 19.7282 90.5849 20.0138C89.8466 20.2929 89.0524 20.4325 88.2022 20.4325C87.3596 20.4325 86.5653 20.2929 85.8196 20.0138C85.0813 19.7282 84.4325 19.3421 83.8732 18.8553C83.3214 18.362 82.8851 17.7811 82.5645 17.1126C82.2438 16.4376 82.0835 15.7107 82.0835 14.9319C82.0835 14.14 82.2438 13.4066 82.5645 12.7316C82.8851 12.0566 83.3214 11.4757 83.8732 10.9889C84.4325 10.4957 85.0813 10.1095 85.8196 9.83041C86.5653 9.55132 87.3596 9.41178 88.2022 9.41178C89.0524 9.41178 89.8466 9.54483 90.5849 9.81094C91.3306 10.0706 91.9794 10.4437 92.5313 10.9305C93.0831 11.4108 93.5194 11.9917 93.84 12.6732C94.1607 13.3482 94.321 14.1011 94.321 14.9319ZM91.2449 14.9319C91.2449 14.5035 91.1628 14.1173 90.9988 13.7733C90.8422 13.4228 90.6259 13.1243 90.35 12.8776C90.074 12.6245 89.7497 12.4331 89.3768 12.3032C89.0114 12.1669 88.6199 12.0988 88.2022 12.0988C87.7846 12.0988 87.3894 12.1669 87.0165 12.3032C86.6511 12.4331 86.3304 12.6245 86.0545 12.8776C85.7861 13.1243 85.5735 13.4228 85.4169 13.7733C85.2603 14.1173 85.182 14.5035 85.182 14.9319C85.182 15.3343 85.2603 15.7075 85.4169 16.0514C85.5735 16.3954 85.7861 16.694 86.0545 16.9471C86.3304 17.2002 86.6511 17.4014 87.0165 17.5507C87.3894 17.6935 87.7846 17.7649 88.2022 17.7649C88.6199 17.7649 89.0114 17.6968 89.3768 17.5605C89.7497 17.4242 90.074 17.2327 90.35 16.9861C90.6259 16.7394 90.8422 16.4409 90.9988 16.0904C91.1628 15.7399 91.2449 15.3537 91.2449 14.9319Z" fill="#F43E3E"/>
<path d="M107.588 14.9319C107.588 15.7107 107.427 16.4376 107.107 17.1126C106.786 17.7811 106.35 18.362 105.798 18.8553C105.246 19.3421 104.597 19.7282 103.852 20.0138C103.113 20.2929 102.319 20.4325 101.469 20.4325C100.626 20.4325 99.832 20.2929 99.0863 20.0138C98.348 19.7282 97.6992 19.3421 97.1399 18.8553C96.5881 18.362 96.1518 17.7811 95.8312 17.1126C95.5105 16.4376 95.3501 15.7107 95.3501 14.9319C95.3501 14.14 95.5105 13.4066 95.8312 12.7316C96.1518 12.0566 96.5881 11.4757 97.1399 10.9889C97.6992 10.4957 98.348 10.1095 99.0863 9.83041C99.832 9.55132 100.626 9.41178 101.469 9.41178C102.319 9.41178 103.113 9.54483 103.852 9.81094C104.597 10.0706 105.246 10.4437 105.798 10.9305C106.35 11.4108 106.786 11.9917 107.107 12.6732C107.427 13.3482 107.588 14.1011 107.588 14.9319ZM104.512 14.9319C104.512 14.5035 104.43 14.1173 104.265 13.7733C104.109 13.4228 103.893 13.1243 103.617 12.8776C103.341 12.6245 103.016 12.4331 102.643 12.3032C102.278 12.1669 101.887 12.0988 101.469 12.0988C101.051 12.0988 100.656 12.1669 100.283 12.3032C99.9178 12.4331 99.5971 12.6245 99.3212 12.8776C99.0527 13.1243 98.8402 13.4228 98.6836 13.7733C98.527 14.1173 98.4487 14.5035 98.4487 14.9319C98.4487 15.3343 98.527 15.7075 98.6836 16.0514C98.8402 16.3954 99.0527 16.694 99.3212 16.9471C99.5971 17.2002 99.9178 17.4014 100.283 17.5507C100.656 17.6935 101.051 17.7649 101.469 17.7649C101.887 17.7649 102.278 17.6968 102.643 17.5605C103.016 17.4242 103.341 17.2327 103.617 16.9861C103.893 16.7394 104.109 16.4409 104.265 16.0904C104.43 15.7399 104.512 15.3537 104.512 14.9319Z" fill="#F43E3E"/>
<path d="M112.353 24.2099H109.277V9.81094H110.015L111.234 11.0668C111.51 10.8397 111.812 10.6255 112.14 10.4243C112.469 10.2231 112.808 10.0511 113.158 9.90829C113.516 9.75901 113.885 9.64219 114.266 9.55781C114.646 9.47344 115.03 9.43125 115.418 9.43125C116.261 9.43125 117.051 9.5643 117.789 9.83041C118.535 10.09 119.184 10.46 119.736 10.9403C120.295 11.4206 120.735 12.0014 121.056 12.6829C121.376 13.3579 121.537 14.1076 121.537 14.9319C121.537 15.7886 121.376 16.5609 121.056 17.2489C120.735 17.9304 120.295 18.5113 119.736 18.9916C119.184 19.4654 118.535 19.8288 117.789 20.082C117.051 20.3351 116.261 20.4617 115.418 20.4617C115.15 20.4617 114.881 20.4357 114.613 20.3838C114.352 20.3319 114.091 20.2637 113.83 20.1793C113.576 20.0885 113.322 19.9879 113.069 19.8775C112.823 19.7672 112.584 19.6536 112.353 19.5368V24.2099ZM118.472 14.9319C118.472 14.4905 118.39 14.0946 118.226 13.7441C118.069 13.3936 117.853 13.0983 117.577 12.8582C117.301 12.6115 116.977 12.4233 116.604 12.2935C116.231 12.1637 115.836 12.0988 115.418 12.0988C115 12.0988 114.605 12.1637 114.232 12.2935C113.867 12.4233 113.546 12.6115 113.27 12.8582C112.994 13.0983 112.774 13.3936 112.61 13.7441C112.454 14.0946 112.375 14.4905 112.375 14.9319C112.375 15.3537 112.454 15.7399 112.61 16.0904C112.774 16.4409 112.994 16.7394 113.27 16.9861C113.546 17.2327 113.867 17.4242 114.232 17.5605C114.605 17.6968 115 17.7649 115.418 17.7649C115.836 17.7649 116.231 17.6968 116.604 17.5605C116.977 17.4242 117.301 17.2327 117.577 16.9861C117.853 16.7394 118.069 16.4409 118.226 16.0904C118.39 15.7399 118.472 15.3537 118.472 14.9319Z" fill="#F43E3E"/>
</g>
<path d="M148.025 7.54166C156.895 7.54166 162.301 12.7604 161.987 19.299C161.736 19.6665 160.509 20.2491 160.509 20.2491H127V7.54166H148.025Z" stroke="#025C6F" stroke-width="1.5"/>
<path d="M135.049 10.6295C135.172 10.6482 135.206 10.675 135.213 10.7482M135.049 10.6295C135.172 10.6482 135.206 10.675 135.213 10.7482M134.884 13.836C135.1 13.8553 135.175 13.807 135.213 13.5985L135.213 10.7482C135.206 10.675 135.172 10.6482 135.049 10.6295H130.942C130.832 10.6327 130.792 10.6557 130.778 10.7482V13.7173C130.792 13.8002 130.826 13.8274 130.942 13.836H134.884Z" stroke="#025C6F" stroke-width="1.5"/>
<path d="M144.083 10.6295C144.206 10.6482 144.24 10.675 144.247 10.7482M144.083 10.6295C144.206 10.6482 144.24 10.675 144.247 10.7482M143.919 13.836C144.134 13.8553 144.209 13.807 144.247 13.5985L144.247 10.7482C144.24 10.675 144.206 10.6482 144.083 10.6295H139.976C139.866 10.6327 139.827 10.6557 139.812 10.7482V13.7173C139.826 13.8002 139.86 13.8274 139.976 13.836H143.919Z" stroke="#025C6F" stroke-width="1.5"/>
<path d="M158.045 10.7482L148.354 10.6295C148.025 12.8859 151.803 16.9238 154.924 16.9238H161.659" stroke="#025C6F" stroke-width="1.5"/>
<path d="M127 7.18537C127 4.3351 129.464 1.00978 130.778 1.00978C133.584 0.714266 134.559 7.2109 134.556 7.30414" stroke="#025C6F" stroke-width="1.5"/>
<path d="M134.698 20.8155C134.632 23.6654 132.092 26.9604 130.778 26.9446C127.965 27.2061 127.14 20.6986 127.146 20.6054" stroke="#025C6F" stroke-width="1.5"/>
</g>
<defs>
<clipPath id="clip0">
<rect width="165" height="28" fill="white"/>
</clipPath>
<clipPath id="clip1">
<rect width="124" height="18" fill="white" transform="translate(0 6)"/>
</clipPath>
</defs>
</svg>
